<svg width="40" height="40" viewBox="0 0 40 40" fill="none" xmlns="http://www.w3.org/2000/svg">
<path d="M20 3.33333C24.5283 3.33333 25.0933 3.35 26.87 3.43333C28.645 3.51667 29.8533 3.795 30.9167 4.20833C32.0167 4.63167 32.9433 5.205 33.87 6.13C34.7175 6.96316 35.3733 7.97098 35.7917 9.08333C36.2033 10.145 36.4833 11.355 36.5667 13.13C36.645 14.9067 36.6667 15.4717 36.6667 20C36.6667 24.5283 36.65 25.0933 36.5667 26.87C36.4833 28.645 36.2033 29.8533 35.7917 30.9167C35.3745 32.0296 34.7185 33.0377 33.87 33.87C33.0366 34.7172 32.0288 35.3729 30.9167 35.7917C29.855 36.2033 28.645 36.4833 26.87 36.5667C25.0933 36.645 24.5283 36.6667 20 36.6667C15.4717 36.6667 14.9067 36.65 13.13 36.5667C11.355 36.4833 10.1467 36.2033 9.08333 35.7917C7.97054 35.3741 6.96255 34.7182 6.13 33.87C5.28234 33.037 4.62655 32.0291 4.20833 30.9167C3.795 29.855 3.51667 28.645 3.43333 26.87C3.355 25.0933 3.33333 24.5283 3.33333 20C3.33333 15.4717 3.35 14.9067 3.43333 13.13C3.51667 11.3533 3.795 10.1467 4.20833 9.08333C4.62539 7.9703 5.28134 6.9622 6.13 6.13C6.96278 5.28205 7.97071 4.62622 9.08333 4.20833C10.1467 3.795 11.3533 3.51667 13.13 3.43333C14.9067 3.355 15.4717 3.33333 20 3.33333ZM20 11.6667C17.7899 11.6667 15.6702 12.5446 14.1074 14.1074C12.5446 15.6702 11.6667 17.7899 11.6667 20C11.6667 22.2101 12.5446 24.3298 14.1074 25.8926C15.6702 27.4554 17.7899 28.3333 20 28.3333C22.2101 28.3333 24.3298 27.4554 25.8926 25.8926C27.4554 24.3298 28.3333 22.2101 28.3333 20C28.3333 17.7899 27.4554 15.6702 25.8926 14.1074C24.3298 12.5446 22.2101 11.6667 20 11.6667ZM30.8333 11.25C30.8333 10.6975 30.6138 10.1676 30.2231 9.77686C29.8324 9.38616 29.3025 9.16667 28.75 9.16667C28.1975 9.16667 27.6676 9.38616 27.2769 9.77686C26.8862 10.1676 26.6667 10.6975 26.6667 11.25C26.6667 11.8025 26.8862 12.3324 27.2769 12.7231C27.6676 13.1138 28.1975 13.3333 28.75 13.3333C29.3025 13.3333 29.8324 13.1138 30.2231 12.7231C30.6138 12.3324 30.8333 11.8025 30.8333 11.25ZM20 15C21.3261 15 22.5979 15.5268 23.5355 16.4645C24.4732 17.4021 25 18.6739 25 20C25 21.3261 24.4732 22.5979 23.5355 23.5355C22.5979 24.4732 21.3261 25 20 25C18.6739 25 17.4021 24.4732 16.4645 23.5355C15.5268 22.5979 15 21.3261 15 20C15 18.6739 15.5268 17.4021 16.4645 16.4645C17.4021 15.5268 18.6739 15 20 15Z" fill="#000033"/>
</svg>
