<svg width="40" height="40" viewBox="0 0 40 40" fill="none" xmlns="http://www.w3.org/2000/svg">
<g clip-path="url(#clip0_28_74)">
<path d="M35.905 10.83C36.6667 13.8 36.6667 20 36.6667 20C36.6667 20 36.6667 26.2 35.905 29.17C35.4817 30.8117 34.2433 32.1033 32.675 32.54C29.8267 33.3333 20 33.3333 20 33.3333C20 33.3333 10.1783 33.3333 7.325 32.54C5.75 32.0967 4.51333 30.8067 4.095 29.17C3.33333 26.2 3.33333 20 3.33333 20C3.33333 20 3.33333 13.8 4.095 10.83C4.51833 9.18833 5.75667 7.89667 7.325 7.46C10.1783 6.66667 20 6.66667 20 6.66667C20 6.66667 29.8267 6.66667 32.675 7.46C34.25 7.90333 35.4867 9.19333 35.905 10.83ZM16.6667 25.8333L26.6667 20L16.6667 14.1667V25.8333Z" fill="#000033"/>
</g>
<defs>
<clipPath id="clip0_28_74">
<rect width="40" height="40" fill="white"/>
</clipPath>
</defs>
</svg>
